<svg width="900" height="277" viewBox="0 0 900 277" fill="none" xmlns="http://www.w3.org/2000/svg">
<g clip-path="url(#clip0_4_385)">
<path d="M0 0C132 -6.48499e-05 200 36.4277 300 51.5277C400 66.7277 500 17.3 600 7.6C700 -2 800 13.6 850 21.5L900 29.3V391.728H850C800 391.728 700 391.728 600 391.728C500 391.728 400 391.728 300 391.728C200 391.728 100 391.728 50.0001 391.728H0.000118256L0 0Z" fill="#FCCA46"/>
<path d="M0 72.9999L50 75.4999C100 77.9999 200 82.9999 300 97.2999C400 111.7 488 105.1 588 92.9999C688 80.7999 800 62.9999 850 38.9999L900 14.9999V362H850C800 362 700 362 600 362C500 362 400 362 300 362C200 362 100 362 50 362H0V72.9999Z" fill="#FFA632"/>
<path d="M0 181.54L50 180.54C100 179.54 200 177.54 300 158.24C400 138.84 500 102.24 600 98.34C700 94.54 800 123.54 850 138.04L900 152.54V276.54H850C800 276.54 700 276.54 600 276.54C500 276.54 400 276.54 300 276.54C200 276.54 100 276.54 50 276.54H0V181.54Z" fill="#FE7F2D"/>
<path d="M0 270.54C107 262 198 218 303 209C408 200 454.5 211.5 579.5 227.04C704.5 242.58 797 244.5 900.5 227.04L904.5 365.54H850C800 365.54 700 365.54 600 365.54C500 365.54 400 365.54 300 365.54C200 365.54 100 365.54 50 365.54H0V270.54Z" fill="#F0EEEA"/>
</g>
<defs>
<clipPath id="clip0_4_385">
<rect width="900" height="277" fill="white"/>
</clipPath>
</defs>
</svg>
